<?xml version="1.0" encoding="UTF-8"?>
<svg width="273px" height="273px" viewBox="0 0 273 273" version="1.1" xmlns="http://www.w3.org/2000/svg" xmlns:xlink="http://www.w3.org/1999/xlink">
    <!-- Generator: Sketch 63.1 (92452) - https://sketch.com -->
    <title>logo_ui</title>
    <desc>Created with Sketch.</desc>
    <g id="Otros" stroke="none" stroke-width="1" fill="none" fill-rule="evenodd">
        <g id="Desktop-HD" transform="translate(-447.000000, -1577.000000)">
            <g id="logo_ui" transform="translate(447.000000, 1577.000000)">
                <circle id="Oval" fill="#004B8D" cx="136.5" cy="136.5" r="136.5"></circle>
                <path d="M110.359375,193.818359 C115.339844,193.818359 119.685547,193.037109 123.396484,191.474609 C127.107422,189.912109 130.28125,187.788086 132.917969,185.102539 C135.554688,182.416992 137.727539,179.291992 139.436523,175.727539 C141.145508,172.163086 142.488281,168.378906 143.464844,164.375 C144.441406,160.371094 145.125,156.245117 145.515625,151.99707 C145.90625,147.749023 146.101562,143.623047 146.101562,139.619141 L146.101562,139.619141 L146.101562,136.616211 C146.101562,135.688477 146.052734,134.736328 145.955078,133.759766 C145.857422,131.611328 145.588867,128.828125 145.149414,125.410156 C144.709961,121.992188 144.050781,118.40332 143.171875,114.643555 C142.292969,110.883789 141.243164,107.099609 140.022461,103.291016 C138.801758,99.4824219 137.361328,96.0400391 135.701172,92.9638672 C134.041016,89.8876953 132.161133,87.3974609 130.061523,85.4931641 C127.961914,83.5888672 125.691406,82.6367188 123.25,82.6367188 C120.320312,82.6367188 118.049805,83.6621094 116.438477,85.7128906 C114.827148,87.7636719 114.021484,90.15625 114.021484,92.890625 C114.021484,94.5507812 114.192383,96.2109375 114.53418,97.8710938 C114.875977,99.53125 115.291016,101.191406 115.779297,102.851562 C117.537109,109.101562 118.953125,115.375977 120.027344,121.674805 C121.101562,127.973633 121.638672,134.345703 121.638672,140.791016 C121.638672,143.037109 121.516602,145.722656 121.272461,148.847656 C121.02832,151.972656 120.466797,154.951172 119.587891,157.783203 C118.708984,160.615234 117.366211,163.056641 115.55957,165.107422 C113.75293,167.158203 111.335938,168.183594 108.308594,168.183594 C105.183594,168.183594 102.717773,167.133789 100.911133,165.03418 C99.1044922,162.93457 97.7128906,160.395508 96.7363281,157.416992 C95.7597656,154.438477 95.1494141,151.337891 94.9052734,148.115234 C94.6611328,144.892578 94.5390625,142.158203 94.5390625,139.912109 C94.5390625,135.517578 94.7832031,131.220703 95.2714844,127.021484 C95.7597656,122.822266 96.3945312,118.623047 97.1757812,114.423828 C97.6640625,111.787109 98.1767578,109.125977 98.7138672,106.44043 C99.2509766,103.754883 99.5195312,101.09375 99.5195312,98.4570312 C99.5195312,96.6992188 99.3242188,94.7705078 98.9335938,92.6708984 C98.5429688,90.5712891 97.8837891,88.5693359 96.9560547,86.6650391 C96.0283203,84.7607422 94.8320312,83.1738281 93.3671875,81.9042969 C91.9023438,80.6347656 90.0957031,80 87.9472656,80 C85.0175781,80 82.4785156,81.0742188 80.3300781,83.2226562 C78.1816406,85.3710938 76.3505859,88.1054688 74.8369141,91.4257812 C73.3232422,94.7460938 72.1025391,98.5058594 71.1748047,102.705078 C70.2470703,106.904297 69.4902344,111.005859 68.9042969,115.009766 C68.3183594,119.013672 67.9033203,122.773438 67.6591797,126.289062 C67.4150391,129.804688 67.2441406,132.587891 67.1464844,134.638672 C67.0488281,135.126953 67,135.664062 67,136.25 L67,136.25 L67,138.154297 C67,144.599609 67.8789062,151.118164 69.6367188,157.709961 C71.3945312,164.301758 74.0800781,170.258789 77.6933594,175.581055 C81.3066406,180.90332 85.8232422,185.273438 91.2431641,188.691406 C96.6630859,192.109375 103.035156,193.818359 110.359375,193.818359 Z M163.826172,193.964844 C165.388672,193.964844 167.439453,193.867188 169.978516,193.671875 C172.517578,193.476562 175.203125,193.15918 178.035156,192.719727 C180.867188,192.280273 183.699219,191.669922 186.53125,190.888672 C189.363281,190.107422 191.926758,189.130859 194.22168,187.958984 C196.516602,186.787109 198.37207,185.371094 199.788086,183.710938 C201.204102,182.050781 201.912109,180.097656 201.912109,177.851562 C201.912109,176.09375 201.545898,174.604492 200.813477,173.383789 C200.081055,172.163086 199.104492,171.137695 197.883789,170.307617 C196.663086,169.477539 195.295898,168.891602 193.782227,168.549805 C192.268555,168.208008 190.730469,168.037109 189.167969,168.037109 L189.167969,168.037109 L188.289062,168.037109 C189.65625,157.099609 190.657227,146.503906 191.291992,136.25 C191.926758,125.996094 192.341797,115.351562 192.537109,104.316406 C194.099609,104.023438 195.710938,103.535156 197.371094,102.851562 C199.03125,102.167969 200.544922,101.313477 201.912109,100.288086 C203.279297,99.2626953 204.37793,98.0175781 205.208008,96.5527344 C206.038086,95.0878906 206.453125,93.4277344 206.453125,91.5722656 C206.453125,89.5214844 205.647461,87.9101562 204.036133,86.7382812 C202.424805,85.5664062 200.520508,84.6386719 198.323242,83.9550781 C196.125977,83.2714844 193.904297,82.8320312 191.658203,82.6367188 C189.412109,82.4414062 187.605469,82.34375 186.238281,82.34375 C183.796875,82.34375 180.574219,82.5634766 176.570312,83.0029297 C172.566406,83.4423828 168.635742,84.2480469 164.77832,85.4199219 C160.920898,86.5917969 157.600586,88.2519531 154.817383,90.4003906 C152.03418,92.5488281 150.642578,95.2832031 150.642578,98.6035156 C150.642578,100.263672 151.106445,101.630859 152.03418,102.705078 C152.961914,103.779297 154.109375,104.682617 155.476562,105.415039 C156.84375,106.147461 158.308594,106.660156 159.871094,106.953125 C161.433594,107.246094 162.898438,107.392578 164.265625,107.392578 C164.753906,107.392578 165.291016,107.368164 165.876953,107.319336 C166.462891,107.270508 167.097656,107.197266 167.78125,107.099609 C167.585938,112.568359 167.390625,118.012695 167.195312,123.432617 C167,128.852539 166.804688,134.345703 166.609375,139.912109 C166.414062,145.380859 166.023438,150.776367 165.4375,156.098633 C164.851562,161.420898 164.216797,166.767578 163.533203,172.138672 C161.775391,172.529297 160.041992,173.115234 158.333008,173.896484 C156.624023,174.677734 155.085938,175.703125 153.71875,176.972656 C152.351562,178.242188 151.25293,179.682617 150.422852,181.293945 C149.592773,182.905273 149.177734,184.736328 149.177734,186.787109 C149.177734,188.447266 149.714844,189.765625 150.789062,190.742188 C151.863281,191.71875 153.157227,192.451172 154.670898,192.939453 C156.18457,193.427734 157.795898,193.720703 159.504883,193.818359 C161.213867,193.916016 162.654297,193.964844 163.826172,193.964844 Z" id="UI" fill="#FFFFFF" fill-rule="nonzero"></path>
            </g>
        </g>
    </g>
</svg>