<?xml version="1.0" encoding="iso-8859-1"?>
<!-- Generator: Adobe Illustrator 19.0.0, SVG Export Plug-In . SVG Version: 6.00 Build 0)  -->
<svg version="1.1" id="Layer_1" xmlns="http://www.w3.org/2000/svg" xmlns:xlink="http://www.w3.org/1999/xlink" x="0px" y="0px"
	 viewBox="0 0 512 512" style="enable-background:new 0 0 512 512;" xml:space="preserve">
<path style="fill:#42577F;" d="M512,256c0,24.971-3.575,49.109-10.248,71.926c-4.708,16.133-10.97,31.611-18.609,46.256
	c-2.309,4.43-4.741,8.783-7.295,13.046c-2.654,4.441-5.441,8.794-8.361,13.057c-6.673,9.76-14.001,19.042-21.918,27.758
	c-4.164,4.586-8.494,9.027-12.98,13.29c-3.253,3.098-6.584,6.118-9.993,9.038c-9.071,7.783-18.709,14.945-28.824,21.418
	c-5.851,3.742-11.869,7.262-18.032,10.526c-35.73,18.942-76.479,29.679-119.736,29.679s-84.007-10.726-119.736-29.679
	c-6.173-3.264-12.191-6.784-18.043-10.515c-10.115-6.484-19.753-13.646-28.824-21.429c-3.409-2.92-6.74-5.94-9.993-9.038
	c-4.486-4.264-8.816-8.705-12.98-13.29c-7.917-8.716-15.234-17.987-21.907-27.736c-2.92-4.264-5.707-8.627-8.372-13.08
	c-2.554-4.264-4.985-8.616-7.295-13.046c-7.628-14.634-13.89-30.101-18.598-46.222C3.575,305.131,0,280.982,0,256
	s3.575-49.131,10.259-71.96c2.321-7.961,5.03-15.766,8.094-23.383c1.599-4.008,3.298-7.95,5.107-11.847
	c1.71-3.72,3.509-7.384,5.396-10.992c4.153-7.972,8.716-15.7,13.668-23.15C88.359,45.562,166.858,0.006,256.006,0.006
	c89.136,0,167.635,45.556,213.469,114.662c4.952,7.45,9.515,15.178,13.668,23.15c1.888,3.609,3.686,7.273,5.396,10.992
	c1.81,3.897,3.509,7.839,5.107,11.847c3.076,7.628,5.785,15.445,8.105,23.417C508.425,206.891,512,231.029,512,256z"/>
<path style="fill:#E09132;" d="M501.752,160.657v167.269c-4.708,16.133-10.97,31.611-18.609,46.256
	c-2.309,4.43-4.741,8.783-7.295,13.046c-2.654,4.441-5.441,8.794-8.361,13.057c-6.673,9.76-14.001,19.042-21.918,27.758
	c-4.164,4.586-8.494,9.027-12.98,13.29c-3.253,3.098-6.584,6.118-9.993,9.038c-9.071,7.783-18.709,14.945-28.824,21.418
	c-5.851,3.742-11.869,7.262-18.032,10.526l-79.765-5.829v0.566c0,4.808-3.908,8.716-8.716,8.716h-62.522
	c-4.808,0-8.705-3.908-8.705-8.716v-0.566l-79.765,5.829c-6.173-3.264-12.191-6.784-18.043-10.515
	c-10.115-6.484-19.753-13.646-28.824-21.429c-3.409-2.92-6.74-5.94-9.993-9.038c-4.486-4.264-8.816-8.705-12.98-13.29
	c-7.917-8.716-15.234-17.987-21.907-27.736c-2.92-4.264-5.707-8.627-8.372-13.08c-2.554-4.264-4.985-8.616-7.295-13.046
	c-7.628-14.634-13.89-30.101-18.598-46.222V160.657h18.598l43.746,62.899l7.095,10.204l17.043,24.494l7.084,10.193l17.032,24.494
	l7.095,10.193l14.823,21.318l2.221,3.176l4.441,6.395l2.654,3.808l17.432,25.071l7.561,10.881l29.312,42.137l8.327,11.969
	l0.922,1.321l0.389,0.566v-102.96c0-0.822,0.111-1.621,0.333-2.365c1.021-3.664,4.386-6.34,8.372-6.34h62.522
	c3.986,0,7.361,2.676,8.383,6.34c0.222,0.744,0.333,1.543,0.333,2.365v102.948l0.378-0.544l0.933-1.332l8.316-11.969l29.312-42.137
	l7.561-10.87l17.443-25.082l2.654-3.808l4.441-6.395l2.21-3.175l14.823-21.318l7.095-10.193l17.043-24.494l7.084-10.193
	l17.043-24.494l7.084-10.204l43.746-62.888l0.011-0.011H501.752z"/>
<path style="fill:#F0A037;" d="M501.752,148.81v179.116c-4.708,16.133-10.97,31.611-18.609,46.256
	c-2.309,4.43-4.741,8.783-7.295,13.046c-2.654,4.441-5.441,8.794-8.361,13.057c-6.651,9.726-13.946,18.975-21.829,27.658
	c-0.033,0.033-0.056,0.067-0.089,0.1c-4.164,4.586-8.494,9.027-12.98,13.29c-3.253,3.098-6.584,6.118-9.993,9.038
	c-0.622,0.533-1.244,1.066-1.876,1.577c-8.516,7.184-17.532,13.812-26.947,19.841l-55.605-4.053l-11.814-0.866l-11.825-0.866
	l-13.002-0.944l-5.552-0.411v0.555c0,4.819-3.908,8.716-8.716,8.716h-62.522c-4.808,0-8.705-3.897-8.705-8.716v-0.555l-97.808,7.15
	c-9.415-6.04-18.431-12.669-26.947-19.852c-0.633-0.511-1.255-1.044-1.876-1.577c-3.409-2.92-6.74-5.94-9.993-9.038
	c-4.486-4.264-8.816-8.705-12.98-13.29c-0.033-0.033-0.056-0.067-0.089-0.1c-7.883-8.683-15.167-17.921-21.818-27.636
	c-2.92-4.264-5.707-8.627-8.372-13.08c-2.554-4.264-4.985-8.616-7.295-13.046c-7.628-14.634-13.89-30.101-18.598-46.222V148.81
	h18.598l51.241,73.669l7.095,10.204l17.032,24.494l7.095,10.193l17.032,24.494l7.095,10.193l15.567,22.395l1.466,2.11l5.196,7.461
	l1.921,2.765l13.168,18.942l4.841,6.951l7.828,11.259l30.589,43.98c0,0,0,0,0.011,0V314.98c0-4.819,3.897-8.716,8.705-8.716h62.522
	c4.808,0,8.716,3.897,8.716,8.716v102.948l30.6-43.991l7.828-11.259l4.841-6.951l13.168-18.942l1.921-2.765l5.196-7.461l1.466-2.11
	l15.567-22.384l7.095-10.204l17.032-24.494l7.095-10.193l17.032-24.494l7.095-10.193l51.23-73.669l0.011-0.011L501.752,148.81
	L501.752,148.81z"/>
<g>
	<rect x="204.698" y="427.882" style="fill:#E09132;" width="11.335" height="42.336"/>
	<rect x="295.977" y="427.882" style="fill:#E09132;" width="11.335" height="42.336"/>
	<path style="fill:#E09132;" d="M445.659,427.943c-0.033,0.033-0.055,0.067-0.089,0.1c-4.164,4.586-8.494,9.027-12.98,13.29
		c-3.253,3.098-6.584,6.118-9.993,9.038c-0.622,0.533-1.244,1.066-1.876,1.577H91.279c-0.633-0.511-1.255-1.044-1.876-1.577
		c-3.409-2.92-6.74-5.94-9.993-9.038c-4.486-4.264-8.816-8.705-12.98-13.29c-0.033-0.033-0.056-0.067-0.089-0.1l106.424-72.215
		l43.269-29.368l29.612-20.097l10.359-7.028l10.359,7.028l29.612,20.097l43.269,29.368L445.659,427.943z"/>
</g>
<path style="fill:#C1BCB4;" d="M467.487,334.022v66.264c-6.673,9.76-14.001,19.042-21.918,27.758
	c-4.164,4.586-8.494,9.027-12.98,13.29c-3.253,3.098-6.584,6.118-9.993,9.038l-66.797-10.948
	c-5.862-0.844-11.747-1.521-17.632-1.976c-10.359-0.822-20.685-0.977-30.856-0.167c-1.932,0.155-3.864,0.344-5.785,0.566
	c-1.854,0.211-3.708,0.466-5.552,0.755c-13.879,2.154-27.325,6.351-39.971,13.346c-12.646-6.995-26.092-11.192-39.971-13.346
	c-3.753-0.588-7.528-1.022-11.336-1.321c-4.597-0.366-9.227-0.533-13.879-0.533c-11.47,0-23.072,1.022-34.597,2.676l-66.819,10.948
	c-3.409-2.92-6.74-5.94-9.993-9.038c-4.486-4.264-8.816-8.705-12.98-13.29c-7.917-8.716-15.234-17.987-21.907-27.736v-66.286
	L467.487,334.022L467.487,334.022z"/>
<polygon style="fill:#EB305B;" points="338.169,421.415 338.169,475.465 319.849,462.141 301.529,475.465 301.529,427 "/>
<path style="fill:#D62755;" d="M338.169,421.415v22.517c-12.336-0.777-24.627-0.644-36.64,0.844V427L338.169,421.415z"/>
<path style="fill:#D3CEC2;" d="M475.848,324.451v62.777c-2.654,4.441-5.441,8.794-8.361,13.057
	c-6.673,9.76-14.001,19.042-21.918,27.758c-4.164,4.586-8.494,9.027-12.98,13.29l-72.848-11.481
	c-7.173-0.988-14.379-1.754-21.573-2.21c-10.415-0.655-20.785-0.666-30.989,0.244c-1.888,0.167-3.775,0.366-5.651,0.6
	c-1.732,0.211-3.453,0.455-5.174,0.733c-0.122,0.011-0.255,0.033-0.378,0.055c-13.868,2.221-27.314,6.362-39.971,13.102
	c-12.658-6.74-26.104-10.881-39.971-13.102c-0.133-0.022-0.255-0.044-0.389-0.067c-3.586-0.566-7.195-0.999-10.826-1.321
	c-5.485-0.489-11.014-0.711-16.588-0.711c-11.914,0-23.983,1.022-35.963,2.676L79.41,441.334c-4.486-4.264-8.816-8.705-12.98-13.29
	c-7.917-8.716-15.234-17.987-21.907-27.736c-2.92-4.264-5.707-8.627-8.372-13.079v-62.777L475.848,324.451L475.848,324.451z"/>
<path style="fill:#E9E4D8;" d="M483.143,116.633v257.549c-2.309,4.43-4.741,8.783-7.295,13.046
	c-2.654,4.441-5.441,8.794-8.361,13.057c-6.673,9.76-14.001,19.042-21.918,27.758l-89.78-12.902
	c-16.777-2.409-33.709-2.11-50.186,0.777c-3.231,0.566-6.44,1.232-9.626,2.01c-3.731,0.888-7.439,1.921-11.103,3.087
	c-9.96,3.153-19.63,7.306-28.868,12.424c-12.646-6.995-26.104-12.191-39.971-15.522c-0.011,0-0.011,0-0.011,0
	c-3.187-0.766-6.395-1.432-9.626-1.999c-9.071-1.588-18.276-2.398-27.525-2.398c-7.55,0-15.122,0.533-22.662,1.621l-89.78,12.902
	c-7.917-8.716-15.234-17.987-21.907-27.736c-2.92-4.264-5.707-8.627-8.372-13.079c-2.554-4.264-4.985-8.616-7.295-13.046V116.633
	l13.668-1.965L156.21,98.335c34.375-4.941,69.406,1.488,99.795,18.298c9.238-5.119,18.909-9.271,28.868-12.424
	c22.761-7.239,47-9.316,70.916-5.874l113.685,16.333L483.143,116.633z"/>
<path style="fill:#E2DED3;" d="M284.874,104.209v316.806c-9.96,3.153-19.63,7.306-28.868,12.424V116.633
	C265.243,111.515,274.914,107.362,284.874,104.209z"/>
<g>
	<path style="fill:#1E3160;" d="M217.087,138.34v11.447c-12.613-3.287-25.593-4.941-38.639-4.941
		c-7.317,0-14.678,0.533-21.862,1.566l-87.437,12.558v-11.214l85.85-12.336c7.706-1.11,15.6-1.677,23.45-1.677
		C191.472,133.743,204.451,135.298,217.087,138.34z"/>
	<path style="fill:#1E3160;" d="M217.087,176.501v11.447c-12.613-3.287-25.593-4.941-38.639-4.941
		c-7.317,0-14.678,0.522-21.862,1.554L69.148,197.12v-11.214l85.85-12.325c7.706-1.121,15.6-1.677,23.45-1.677
		C191.472,171.905,204.451,173.448,217.087,176.501z"/>
	<path style="fill:#1E3160;" d="M217.087,214.652v11.447c-12.613-3.287-25.593-4.941-38.639-4.941
		c-7.317,0-14.678,0.522-21.862,1.566L69.148,235.27v-11.214l85.85-12.325c7.706-1.11,15.6-1.677,23.45-1.677
		C191.472,210.055,204.451,211.598,217.087,214.652z"/>
	<path style="fill:#1E3160;" d="M217.087,252.802v11.447c-12.613-3.287-25.593-4.941-38.639-4.941
		c-7.317,0-14.678,0.533-21.862,1.566l-87.437,12.547v-11.203l85.85-12.336c7.706-1.11,15.6-1.677,23.45-1.677
		C191.472,248.206,204.451,249.76,217.087,252.802z"/>
	<path style="fill:#1E3160;" d="M217.087,290.964V302.4c-12.613-3.275-25.593-4.941-38.639-4.941
		c-7.317,0-14.678,0.533-21.862,1.566l-87.437,12.558v-11.214l85.85-12.336c7.706-1.11,15.6-1.677,23.45-1.677
		C191.472,286.356,204.451,287.91,217.087,290.964z"/>
	<path style="fill:#1E3160;" d="M217.087,329.114v11.447c-12.613-3.287-25.593-4.941-38.639-4.941
		c-7.317,0-14.678,0.522-21.862,1.566l-87.437,12.547v-11.214l85.85-12.325c7.706-1.11,15.6-1.677,23.45-1.677
		C191.472,324.518,204.451,326.061,217.087,329.114z"/>
	<path style="fill:#1E3160;" d="M217.087,367.265v11.447c-12.613-3.287-25.593-4.941-38.639-4.941
		c-7.317,0-14.678,0.522-21.862,1.566l-87.437,12.547v-11.214l85.85-12.325c7.706-1.11,15.6-1.677,23.45-1.677
		C191.472,362.668,204.451,364.211,217.087,367.265z"/>
	<path style="fill:#1E3160;" d="M294.913,138.34v11.447c12.613-3.287,25.593-4.941,38.639-4.941c7.317,0,14.678,0.533,21.862,1.566
		l87.437,12.558v-11.214l-85.85-12.336c-7.706-1.11-15.6-1.677-23.45-1.677C320.528,133.743,307.549,135.298,294.913,138.34z"/>
	<path style="fill:#1E3160;" d="M294.913,176.501v11.447c12.613-3.287,25.593-4.941,38.639-4.941c7.317,0,14.678,0.522,21.862,1.554
		l87.437,12.558v-11.214l-85.85-12.325c-7.706-1.121-15.6-1.677-23.45-1.677C320.528,171.905,307.549,173.448,294.913,176.501z"/>
	<path style="fill:#1E3160;" d="M294.913,214.652v11.447c12.613-3.287,25.593-4.941,38.639-4.941c7.317,0,14.678,0.522,21.862,1.566
		l87.437,12.547v-11.214l-85.85-12.325c-7.706-1.11-15.6-1.677-23.45-1.677C320.528,210.055,307.549,211.598,294.913,214.652z"/>
	<path style="fill:#1E3160;" d="M294.913,252.802v11.447c12.613-3.287,25.593-4.941,38.639-4.941c7.317,0,14.678,0.533,21.862,1.566
		l87.437,12.547v-11.203l-85.85-12.336c-7.706-1.11-15.6-1.677-23.45-1.677C320.528,248.206,307.549,249.76,294.913,252.802z"/>
	<path style="fill:#1E3160;" d="M294.913,290.964V302.4c12.613-3.275,25.593-4.941,38.639-4.941c7.317,0,14.678,0.533,21.862,1.566
		l87.437,12.558v-11.214l-85.85-12.336c-7.706-1.11-15.6-1.677-23.45-1.677C320.528,286.356,307.549,287.91,294.913,290.964z"/>
	<path style="fill:#1E3160;" d="M294.913,329.114v11.447c12.613-3.287,25.593-4.941,38.639-4.941c7.317,0,14.678,0.522,21.862,1.566
		l87.437,12.547v-11.214l-85.85-12.325c-7.706-1.11-15.6-1.677-23.45-1.677C320.528,324.518,307.549,326.061,294.913,329.114z"/>
	<path style="fill:#1E3160;" d="M294.913,367.265v11.447c12.613-3.287,25.593-4.941,38.639-4.941c7.317,0,14.678,0.522,21.862,1.566
		l87.437,12.547v-11.214l-85.85-12.325c-7.706-1.11-15.6-1.677-23.45-1.677C320.528,362.668,307.549,364.211,294.913,367.265z"/>
</g>
<g>
</g>
<g>
</g>
<g>
</g>
<g>
</g>
<g>
</g>
<g>
</g>
<g>
</g>
<g>
</g>
<g>
</g>
<g>
</g>
<g>
</g>
<g>
</g>
<g>
</g>
<g>
</g>
<g>
</g>
</svg>
