<?xml version="1.0" encoding="iso-8859-1"?>
<!-- Generator: Adobe Illustrator 19.0.0, SVG Export Plug-In . SVG Version: 6.00 Build 0)  -->
<svg version="1.1" id="Capa_1" xmlns="http://www.w3.org/2000/svg" xmlns:xlink="http://www.w3.org/1999/xlink" x="0px" y="0px"
	 viewBox="0 0 512 512" style="enable-background:new 0 0 512 512;" xml:space="preserve">
<circle style="fill:#51B0E0;" cx="256" cy="256" r="256"/>
<path style="fill:#6E7789;" d="M143.126,83.713H76.772c-7.557,0-13.682,6.125-13.682,13.682v25.732h93.718V97.395
	C156.808,89.838,150.683,83.713,143.126,83.713z"/>
<g>
	<path style="fill:#535B70;" d="M98.231,83.713H76.772c-7.557,0-13.682,6.125-13.682,13.682v25.732h21.459V97.395
		C84.549,89.838,90.674,83.713,98.231,83.713z"/>
	<path style="fill:#535B70;" d="M499.715,160.203v174.362c-12.476,38.745-33.938,73.467-61.942,101.689H74.233
		c-28.003-28.223-49.465-62.945-61.942-101.689V160.203c0-17.45,10.679-32.413,25.861-38.713c4.942-2.048,10.355-3.176,16.039-3.176
		h403.623c5.684,0,11.097,1.128,16.039,3.187C489.036,127.79,499.715,142.753,499.715,160.203z"/>
</g>
<g>
	<circle style="fill:#42495B;" cx="436.652" cy="346.906" r="35.034"/>
	<path style="fill:#42495B;" d="M455.212,276.623c-0.933,84.924-70.065,107.075-155.2,107.075s-154.267-22.151-155.2-107.075
		l5.058-41.319l17.237-140.538c3.876-31.571,30.677-55.285,62.471-55.285h140.866c31.794,0,58.596,23.714,62.471,55.285
		l17.237,140.538L455.212,276.623z"/>
</g>
<path style="fill:#6E7789;" d="M455.238,274.849c0,0.591,0,1.183-0.026,1.774c-0.933,84.924-70.065,153.465-155.2,153.465
	s-154.267-68.541-155.2-153.465c-0.026-0.591-0.026-1.183-0.026-1.774c0-13.663,1.761-26.92,5.084-39.545
	c17.486-66.57,78.079-115.681,150.141-115.681s132.655,49.11,150.141,115.681C453.477,247.929,455.238,261.186,455.238,274.849z"/>
<path style="fill:#535B70;" d="M420.674,274.85c0,0.46,0,0.92-0.021,1.379c-0.725,66.014-54.463,119.293-120.641,119.293
	s-119.916-53.279-120.641-119.293c-0.021-0.46-0.021-0.919-0.021-1.379c0-10.621,1.369-20.925,3.952-30.74
	c13.593-51.746,60.693-89.922,116.709-89.922s103.116,38.174,116.709,89.922C419.305,253.925,420.674,264.23,420.674,274.85z"/>
<path style="fill:#42495B;" d="M394.168,274.852c0,0.358,0,0.718-0.016,1.076c-0.566,51.512-42.499,93.088-94.14,93.088
	s-93.574-41.575-94.14-93.088c-0.016-0.358-0.016-0.717-0.016-1.076c0-8.288,1.068-16.329,3.085-23.987
	c10.607-40.38,47.361-70.169,91.071-70.169s80.464,29.789,91.072,70.169C393.1,258.522,394.168,266.564,394.168,274.852z"/>
<path style="fill:#535B70;" d="M365.393,274.853c0,0.249,0,0.498-0.012,0.747c-0.393,35.77-29.511,64.639-65.37,64.639
	s-64.977-28.869-65.37-64.639c-0.011-0.249-0.011-0.498-0.011-0.747c0-5.755,0.742-11.338,2.142-16.657
	c7.365-28.039,32.887-48.725,63.239-48.725s55.874,20.685,63.239,48.725C364.652,263.514,365.393,269.098,365.393,274.853z"/>
<path style="fill:#42495B;" d="M355.862,274.853c0,0.213,0,0.425-0.009,0.638c-0.335,30.555-25.209,55.217-55.84,55.217
	s-55.504-24.661-55.84-55.217c-0.009-0.213-0.009-0.425-0.009-0.638c0-4.916,0.633-9.685,1.83-14.228
	c6.291-23.952,28.092-41.621,54.02-41.621c25.928,0,47.729,17.669,54.02,41.621C355.229,265.168,355.862,269.937,355.862,274.853z"
	/>
<path style="fill:#343B49;" d="M326.88,290.522c-1.313,2.26-2.942,4.388-4.874,6.32c-0.092,0.078-0.17,0.17-0.262,0.25
	c-7.345,7.187-17.394,9.998-26.841,8.434c-0.381-0.066-0.749-0.132-1.13-0.21c-5.78-1.169-11.272-3.994-15.753-8.474
	c-4.481-4.48-7.305-9.985-8.474-15.753c-0.078-0.381-0.144-0.749-0.21-1.13c-1.563-9.446,1.248-19.484,8.448-26.841
	c0.078-0.078,0.158-0.17,0.25-0.25c1.931-1.931,4.059-3.56,6.32-4.887c6.346-3.705,13.729-4.966,20.784-3.797
	c0.224,0.04,0.434,0.078,0.657,0.118c5.938,1.117,11.628,3.981,16.213,8.566c4.599,4.599,7.449,10.274,8.552,16.225
	c0.04,0.21,0.078,0.434,0.118,0.644v0.014C331.846,276.807,330.585,284.177,326.88,290.522z"/>
<g>
	<path style="fill:#6E7789;" d="M330.559,269.095c-10.537,7.199-21.887,8.71-27.695,2.916c-5.807-5.806-4.296-17.158,2.93-27.709
		c5.938,1.117,11.628,3.981,16.213,8.566C326.604,257.467,329.454,263.143,330.559,269.095z"/>
	<path style="fill:#6E7789;" d="M293.772,305.316c-5.78-1.169-11.272-3.994-15.753-8.474c-4.481-4.481-7.305-9.985-8.474-15.753
		c10.077-6.28,20.574-7.371,26.092-1.853C301.155,284.742,300.064,295.253,293.772,305.316z"/>
	<path style="fill:#6E7789;" d="M385.357,56.045h-170.69c-13.445,0-24.344,10.899-24.344,24.344l0,0
		c0,13.445,10.899,24.344,24.344,24.344h170.69c13.445,0,24.344-10.899,24.344-24.344l0,0
		C409.701,66.945,398.802,56.045,385.357,56.045z"/>
	<path style="fill:#6E7789;" d="M92.863,266.741v169.514H74.233c-28.003-28.223-49.465-62.945-61.942-101.689V207.213h21.044
		C66.218,207.213,92.863,233.858,92.863,266.741z"/>
</g>
<path style="fill:#42495B;" d="M52.579,163.417c0,9.191,13.333,16.641,29.78,16.641s29.78-7.451,29.78-16.641v-13.139H52.579
	V163.417z"/>
<ellipse style="fill:#6E7789;" cx="82.359" cy="150.277" rx="29.78" ry="16.641"/>
<g>
</g>
<g>
</g>
<g>
</g>
<g>
</g>
<g>
</g>
<g>
</g>
<g>
</g>
<g>
</g>
<g>
</g>
<g>
</g>
<g>
</g>
<g>
</g>
<g>
</g>
<g>
</g>
<g>
</g>
</svg>
