<?xml version="1.0" encoding="UTF-8"?>
<svg width="273px" height="273px" viewBox="0 0 273 273" version="1.1" xmlns="http://www.w3.org/2000/svg" xmlns:xlink="http://www.w3.org/1999/xlink">
    <!-- Generator: Sketch 63.1 (92452) - https://sketch.com -->
    <title>logo_ux</title>
    <desc>Created with Sketch.</desc>
    <g id="Otros" stroke="none" stroke-width="1" fill="none" fill-rule="evenodd">
        <g id="Desktop-HD" transform="translate(-81.000000, -1577.000000)">
            <g id="logo_ux" transform="translate(81.000000, 1577.000000)">
                <circle id="Oval" fill="#D0021B" cx="136.5" cy="136.5" r="136.5"></circle>
                <path d="M99.359375,193.257812 C104.339844,193.257812 108.685547,192.476562 112.396484,190.914062 C116.107422,189.351562 119.28125,187.227539 121.917969,184.541992 C124.554688,181.856445 126.727539,178.731445 128.436523,175.166992 C130.145508,171.602539 131.488281,167.818359 132.464844,163.814453 C133.441406,159.810547 134.125,155.68457 134.515625,151.436523 C134.90625,147.188477 135.101562,143.0625 135.101562,139.058594 L135.101562,139.058594 L135.101562,136.055664 C135.101562,135.12793 135.052734,134.175781 134.955078,133.199219 C134.857422,131.050781 134.588867,128.267578 134.149414,124.849609 C133.709961,121.431641 133.050781,117.842773 132.171875,114.083008 C131.292969,110.323242 130.243164,106.539062 129.022461,102.730469 C127.801758,98.921875 126.361328,95.4794922 124.701172,92.4033203 C123.041016,89.3271484 121.161133,86.8369141 119.061523,84.9326172 C116.961914,83.0283203 114.691406,82.0761719 112.25,82.0761719 C109.320312,82.0761719 107.049805,83.1015625 105.438477,85.1523438 C103.827148,87.203125 103.021484,89.5957031 103.021484,92.3300781 C103.021484,93.9902344 103.192383,95.6503906 103.53418,97.3105469 C103.875977,98.9707031 104.291016,100.630859 104.779297,102.291016 C106.537109,108.541016 107.953125,114.81543 109.027344,121.114258 C110.101562,127.413086 110.638672,133.785156 110.638672,140.230469 C110.638672,142.476562 110.516602,145.162109 110.272461,148.287109 C110.02832,151.412109 109.466797,154.390625 108.587891,157.222656 C107.708984,160.054688 106.366211,162.496094 104.55957,164.546875 C102.75293,166.597656 100.335938,167.623047 97.3085938,167.623047 C94.1835938,167.623047 91.7177734,166.573242 89.9111328,164.473633 C88.1044922,162.374023 86.7128906,159.834961 85.7363281,156.856445 C84.7597656,153.87793 84.1494141,150.777344 83.9052734,147.554688 C83.6611328,144.332031 83.5390625,141.597656 83.5390625,139.351562 C83.5390625,134.957031 83.7832031,130.660156 84.2714844,126.460938 C84.7597656,122.261719 85.3945312,118.0625 86.1757812,113.863281 C86.6640625,111.226562 87.1767578,108.56543 87.7138672,105.879883 C88.2509766,103.194336 88.5195312,100.533203 88.5195312,97.8964844 C88.5195312,96.1386719 88.3242188,94.2099609 87.9335938,92.1103516 C87.5429688,90.0107422 86.8837891,88.0087891 85.9560547,86.1044922 C85.0283203,84.2001953 83.8320312,82.6132812 82.3671875,81.34375 C80.9023438,80.0742188 79.0957031,79.4394531 76.9472656,79.4394531 C74.0175781,79.4394531 71.4785156,80.5136719 69.3300781,82.6621094 C67.1816406,84.8105469 65.3505859,87.5449219 63.8369141,90.8652344 C62.3232422,94.1855469 61.1025391,97.9453125 60.1748047,102.144531 C59.2470703,106.34375 58.4902344,110.445312 57.9042969,114.449219 C57.3183594,118.453125 56.9033203,122.212891 56.6591797,125.728516 C56.4150391,129.244141 56.2441406,132.027344 56.1464844,134.078125 C56.0488281,134.566406 56,135.103516 56,135.689453 L56,135.689453 L56,137.59375 C56,144.039062 56.8789062,150.557617 58.6367188,157.149414 C60.3945312,163.741211 63.0800781,169.698242 66.6933594,175.020508 C70.3066406,180.342773 74.8232422,184.712891 80.2431641,188.130859 C85.6630859,191.548828 92.0351562,193.257812 99.359375,193.257812 Z M145.648438,192.525391 C147.40625,192.525391 149.237305,191.890625 151.141602,190.621094 C153.045898,189.351562 154.901367,187.789062 156.708008,185.933594 C158.514648,184.078125 160.174805,182.198242 161.688477,180.293945 C163.202148,178.389648 164.496094,176.753906 165.570312,175.386719 C167.230469,173.238281 168.915039,171.138672 170.624023,169.087891 C172.333008,167.037109 174.017578,164.9375 175.677734,162.789062 C176.849609,164.742188 178.436523,167.305664 180.438477,170.479492 C182.44043,173.65332 184.637695,176.753906 187.030273,179.78125 C189.422852,182.808594 191.961914,185.420898 194.647461,187.618164 C197.333008,189.81543 199.994141,190.914062 202.630859,190.914062 C204.876953,190.914062 206.537109,190.05957 207.611328,188.350586 C208.685547,186.641602 209.222656,184.810547 209.222656,182.857422 C209.222656,180.318359 208.514648,177.095703 207.098633,173.189453 C205.682617,169.283203 204.022461,165.279297 202.118164,161.177734 C200.213867,157.076172 198.260742,153.169922 196.258789,149.458984 C194.256836,145.748047 192.621094,142.818359 191.351562,140.669922 C193.890625,136.470703 196.283203,132.24707 198.529297,127.999023 C200.775391,123.750977 203.021484,119.527344 205.267578,115.328125 C206.341797,113.472656 207.538086,111.373047 208.856445,109.029297 C210.174805,106.685547 211.419922,104.268555 212.591797,101.77832 C213.763672,99.2880859 214.740234,96.8222656 215.521484,94.3808594 C216.302734,91.9394531 216.693359,89.6445312 216.693359,87.4960938 C216.693359,85.7382812 216.205078,83.8828125 215.228516,81.9296875 C214.251953,79.9765625 212.689453,79 210.541016,79 C208.587891,79 206.512695,79.7080078 204.31543,81.1240234 C202.118164,82.5400391 199.945312,84.3466797 197.796875,86.5439453 C195.648438,88.7412109 193.548828,91.2070312 191.498047,93.9414062 C189.447266,96.6757812 187.542969,99.3613281 185.785156,101.998047 C184.027344,104.634766 182.464844,107.125 181.097656,109.46875 C179.730469,111.8125 178.65625,113.667969 177.875,115.035156 C176.410156,111.324219 174.847656,107.735352 173.1875,104.268555 C171.527344,100.801758 169.867188,97.3105469 168.207031,93.7949219 C167.621094,92.4277344 166.839844,90.9384766 165.863281,89.3271484 C164.886719,87.7158203 163.763672,86.2021484 162.494141,84.7861328 C161.224609,83.3701172 159.833008,82.1982422 158.319336,81.2705078 C156.805664,80.3427734 155.169922,79.8789062 153.412109,79.8789062 C150.287109,79.8789062 148.041016,80.9775391 146.673828,83.1748047 C145.306641,85.3720703 144.623047,87.8867188 144.623047,90.71875 C144.623047,93.2578125 145.18457,96.6025391 146.307617,100.75293 C147.430664,104.90332 148.773438,109.175781 150.335938,113.570312 C151.898438,117.964844 153.485352,122.164062 155.09668,126.167969 C156.708008,130.171875 158.050781,133.296875 159.125,135.542969 C153.851562,145.503906 148.822266,155.5625 144.037109,165.71875 C142.669922,168.355469 141.473633,171.211914 140.448242,174.288086 C139.422852,177.364258 138.910156,180.416016 138.910156,183.443359 C138.910156,184.517578 139.032227,185.591797 139.276367,186.666016 C139.520508,187.740234 139.911133,188.716797 140.448242,189.595703 C140.985352,190.474609 141.668945,191.182617 142.499023,191.719727 C143.329102,192.256836 144.378906,192.525391 145.648438,192.525391 Z" id="UX" fill="#FFFFFF" fill-rule="nonzero"></path>
            </g>
        </g>
    </g>
</svg>