<?xml version="1.0" encoding="iso-8859-1"?>
<!-- Generator: Adobe Illustrator 19.0.0, SVG Export Plug-In . SVG Version: 6.00 Build 0)  -->
<svg version="1.1" id="Layer_1" xmlns="http://www.w3.org/2000/svg" xmlns:xlink="http://www.w3.org/1999/xlink" x="0px" y="0px"
	 viewBox="0 0 512 512" style="enable-background:new 0 0 512 512;" xml:space="preserve">
<path style="fill:#484686;" d="M256,68.817v374.366c103.378,0,187.183-83.805,187.183-187.183S359.378,68.817,256,68.817z"/>
<path style="fill:#6858AD;" d="M410.151,256c0-103.378-69.015-187.183-154.151-187.183C152.622,68.817,68.817,152.622,68.817,256
	S152.622,443.183,256,443.183C341.135,443.183,410.151,359.378,410.151,256z"/>
<path style="fill:#092339;" d="M256,134.882v242.237c66.891,0,121.118-54.227,121.118-121.118S322.891,134.882,256,134.882z"/>
<path style="fill:#293560;" d="M344.086,256c0-66.891-39.437-121.118-88.086-121.118c-66.891,0-121.118,54.227-121.118,121.118
	S189.109,377.118,256,377.118C304.649,377.118,344.086,322.891,344.086,256z"/>
<path d="M468.163,382.519c-53.672,53.673-126.692,76.484-196.817,68.454c62.607-3.678,120.956-29.796,165.673-74.513
	C485.371,328.108,512,263.821,512,195.441c0-4.561-3.696-8.258-8.258-8.258s-8.258,3.697-8.258,8.258
	c0,75.916-35.51,143.693-90.788,187.6c41.685-46.874,64.483-106.612,64.483-169.863c0-68.381-26.629-132.667-74.981-181.019
	c-3.226-3.225-8.454-3.225-11.679,0c-3.225,3.225-3.225,8.454,0,11.678c45.233,45.232,70.144,105.372,70.144,169.341
	c0,9.51-0.557,18.933-1.643,28.237c-3.509-62.896-29.662-121.537-74.559-166.434C328.107,26.628,263.821,0,195.441,0
	c-4.562,0-8.258,3.697-8.258,8.258s3.696,8.258,8.258,8.258c75.902,0,143.659,35.5,187.568,90.761
	c-46.871-41.667-106.595-64.455-169.83-64.455c-68.381,0-132.667,26.63-181.02,74.981c-3.225,3.225-3.225,8.454,0,11.678
	c3.226,3.225,8.454,3.225,11.679,0C97.509,75.81,170.525,53,240.648,61.027c-62.605,3.679-120.951,29.797-165.667,74.512
	C26.63,183.892,0,248.179,0,316.559c0,4.561,3.696,8.258,8.258,8.258s8.258-3.697,8.258-8.258
	c0-75.909,35.505-143.678,90.776-187.586c-41.676,46.872-64.47,106.604-64.47,169.847c0,68.381,26.63,132.667,74.981,181.019
	c1.613,1.612,3.727,2.419,5.84,2.419c2.113,0,4.227-0.806,5.84-2.419c3.225-3.225,3.225-8.454,0-11.678
	C84.25,422.93,59.339,362.79,59.339,298.821c0-9.519,0.554-18.952,1.642-28.265c3.504,62.907,29.656,121.558,74.56,166.463
	C183.893,485.372,248.179,512,316.559,512c4.562,0,8.258-3.697,8.258-8.258c0-4.561-3.696-8.258-8.258-8.258
	c-75.916,0-143.693-35.51-187.6-90.789c46.875,41.685,106.613,64.483,169.863,64.483c68.381,0,132.667-26.63,181.02-74.981
	c3.225-3.225,3.225-8.454,0-11.678C476.616,379.294,471.388,379.294,468.163,382.519z M77.075,256
	c0-98.66,80.265-178.925,178.925-178.925S434.925,157.34,434.925,256S354.66,434.925,256,434.925S77.075,354.66,77.075,256z"/>
<path d="M256,385.376c71.339,0,129.376-58.038,129.376-129.376S327.339,126.624,256,126.624c-28.489,0-55.515,9.086-78.158,26.277
	c-3.632,2.758-4.342,7.939-1.583,11.571c2.757,3.632,7.939,4.343,11.571,1.583c19.746-14.991,43.318-22.916,68.17-22.916
	c62.232,0,112.86,50.629,112.86,112.86S318.232,368.86,256,368.86S143.14,318.232,143.14,256c0-24.85,7.924-48.424,22.917-68.171
	c2.758-3.632,2.048-8.813-1.583-11.571c-3.636-2.758-8.813-2.047-11.571,1.583c-17.191,22.645-26.278,49.671-26.278,78.159
	C126.624,327.339,184.661,385.376,256,385.376z"/>
<circle cx="462.452" cy="462.452" r="8.258"/>
<circle cx="495.484" cy="82.581" r="8.258"/>
<circle cx="462.452" cy="49.548" r="8.258"/>
<circle cx="49.548" cy="49.548" r="8.258"/>
<g>
</g>
<g>
</g>
<g>
</g>
<g>
</g>
<g>
</g>
<g>
</g>
<g>
</g>
<g>
</g>
<g>
</g>
<g>
</g>
<g>
</g>
<g>
</g>
<g>
</g>
<g>
</g>
<g>
</g>
</svg>
