<?xml version="1.0" encoding="UTF-8" standalone="no"?>
<!-- Generator: Adobe Illustrator 19.0.0, SVG Export Plug-In . SVG Version: 6.00 Build 0)  -->

<svg
   xmlns:dc="http://purl.org/dc/elements/1.1/"
   xmlns:cc="http://creativecommons.org/ns#"
   xmlns:rdf="http://www.w3.org/1999/02/22-rdf-syntax-ns#"
   xmlns:svg="http://www.w3.org/2000/svg"
   xmlns="http://www.w3.org/2000/svg"
   xmlns:sodipodi="http://sodipodi.sourceforge.net/DTD/sodipodi-0.dtd"
   xmlns:inkscape="http://www.inkscape.org/namespaces/inkscape"
   version="1.1"
   id="Layer_1"
   x="0px"
   y="0px"
   viewBox="0 0 512 512"
   style="enable-background:new 0 0 512 512;"
   xml:space="preserve"
   sodipodi:docname="black-hole_white.svg"
   inkscape:version="0.92.4 (5da689c313, 2019-01-14)"><metadata
   id="metadata57"><rdf:RDF><cc:Work
       rdf:about=""><dc:format>image/svg+xml</dc:format><dc:type
         rdf:resource="http://purl.org/dc/dcmitype/StillImage" /></cc:Work></rdf:RDF></metadata><defs
   id="defs55" /><sodipodi:namedview
   pagecolor="#ffffff"
   bordercolor="#666666"
   borderopacity="1"
   objecttolerance="10"
   gridtolerance="10"
   guidetolerance="10"
   inkscape:pageopacity="0"
   inkscape:pageshadow="2"
   inkscape:window-width="958"
   inkscape:window-height="1008"
   id="namedview53"
   showgrid="false"
   inkscape:zoom="1.0049115"
   inkscape:cx="275.52542"
   inkscape:cy="240.81356"
   inkscape:window-x="953"
   inkscape:window-y="0"
   inkscape:window-maximized="0"
   inkscape:current-layer="Layer_1" />
<path
   style="fill:#808080"
   d="M256,68.817v374.366c103.378,0,187.183-83.805,187.183-187.183S359.378,68.817,256,68.817z"
   id="path2" />
<path
   style="fill:#666666"
   d="M410.151,256c0-103.378-69.015-187.183-154.151-187.183C152.622,68.817,68.817,152.622,68.817,256  S152.622,443.183,256,443.183C341.135,443.183,410.151,359.378,410.151,256z"
   id="path4" />
<path
   style="fill:#333333"
   d="M256,134.882v242.237c66.891,0,121.118-54.227,121.118-121.118S322.891,134.882,256,134.882z"
   id="path6" />
<path
   style="fill:#1a1a1a"
   d="M344.086,256c0-66.891-39.437-121.118-88.086-121.118c-66.891,0-121.118,54.227-121.118,121.118  S189.109,377.118,256,377.118C304.649,377.118,344.086,322.891,344.086,256z"
   id="path8" />
<path
   d="M468.163,382.519c-53.672,53.673-126.692,76.484-196.817,68.454c62.607-3.678,120.956-29.796,165.673-74.513  C485.371,328.108,512,263.821,512,195.441c0-4.561-3.696-8.258-8.258-8.258s-8.258,3.697-8.258,8.258  c0,75.916-35.51,143.693-90.788,187.6c41.685-46.874,64.483-106.612,64.483-169.863c0-68.381-26.629-132.667-74.981-181.019  c-3.226-3.225-8.454-3.225-11.679,0c-3.225,3.225-3.225,8.454,0,11.678c45.233,45.232,70.144,105.372,70.144,169.341  c0,9.51-0.557,18.933-1.643,28.237c-3.509-62.896-29.662-121.537-74.559-166.434C328.107,26.628,263.821,0,195.441,0  c-4.562,0-8.258,3.697-8.258,8.258s3.696,8.258,8.258,8.258c75.902,0,143.659,35.5,187.568,90.761  c-46.871-41.667-106.595-64.455-169.83-64.455c-68.381,0-132.667,26.63-181.02,74.981c-3.225,3.225-3.225,8.454,0,11.678  c3.226,3.225,8.454,3.225,11.679,0C97.509,75.81,170.525,53,240.648,61.027c-62.605,3.679-120.951,29.797-165.667,74.512  C26.63,183.892,0,248.179,0,316.559c0,4.561,3.696,8.258,8.258,8.258s8.258-3.697,8.258-8.258  c0-75.909,35.505-143.678,90.776-187.586c-41.676,46.872-64.47,106.604-64.47,169.847c0,68.381,26.63,132.667,74.981,181.019  c1.613,1.612,3.727,2.419,5.84,2.419c2.113,0,4.227-0.806,5.84-2.419c3.225-3.225,3.225-8.454,0-11.678  C84.25,422.93,59.339,362.79,59.339,298.821c0-9.519,0.554-18.952,1.642-28.265c3.504,62.907,29.656,121.558,74.56,166.463  C183.893,485.372,248.179,512,316.559,512c4.562,0,8.258-3.697,8.258-8.258c0-4.561-3.696-8.258-8.258-8.258  c-75.916,0-143.693-35.51-187.6-90.789c46.875,41.685,106.613,64.483,169.863,64.483c68.381,0,132.667-26.63,181.02-74.981  c3.225-3.225,3.225-8.454,0-11.678C476.616,379.294,471.388,379.294,468.163,382.519z M77.075,256  c0-98.66,80.265-178.925,178.925-178.925S434.925,157.34,434.925,256S354.66,434.925,256,434.925S77.075,354.66,77.075,256z"
   id="path10"
   style="fill:#ffffff" />
<path
   d="m 256,385.376 c 71.339,0 129.376,-58.038 129.376,-129.376 0,-71.338 -58.037,-129.376 -129.376,-129.376 -28.489,0 -55.515,9.086 -78.158,26.277 -3.632,2.758 -4.342,7.939 -1.583,11.571 2.757,3.632 7.939,4.343 11.571,1.583 19.746,-14.991 43.318,-22.916 68.17,-22.916 48.8203,0 90.49923,31.15822 106.19633,74.63274 4.31224,11.94314 6.66367,24.81577 6.66367,38.22726 0,62.231 -50.628,112.861 -112.86,112.861 -62.232,0 -112.86,-50.628 -112.86,-112.86 0,-24.85 7.924,-48.424 22.917,-68.171 2.758,-3.632 2.048,-8.813 -1.583,-11.571 -3.636,-2.758 -8.813,-2.047 -11.571,1.583 -17.191,22.645 -26.278,49.671 -26.278,78.159 -0.001,71.339 58.036,129.376 129.375,129.376 z"
   id="path12"
   inkscape:connector-curvature="0"
   sodipodi:nodetypes="ssscccsssssccccs"
   style="fill:#ffffff" />




<g
   id="g22">
</g>
<g
   id="g24">
</g>
<g
   id="g26">
</g>
<g
   id="g28">
</g>
<g
   id="g30">
</g>
<g
   id="g32">
</g>
<g
   id="g34">
</g>
<g
   id="g36">
</g>
<g
   id="g38">
</g>
<g
   id="g40">
</g>
<g
   id="g42">
</g>
<g
   id="g44">
</g>
<g
   id="g46">
</g>
<g
   id="g48">
</g>
<g
   id="g50">
</g>
</svg>