<?xml version="1.0" encoding="UTF-8"?>
<svg width="273px" height="273px" viewBox="0 0 273 273" version="1.1" xmlns="http://www.w3.org/2000/svg" xmlns:xlink="http://www.w3.org/1999/xlink">
    <!-- Generator: Sketch 63.1 (92452) - https://sketch.com -->
    <title>logo_fe</title>
    <desc>Created with Sketch.</desc>
    <g id="Otros" stroke="none" stroke-width="1" fill="none" fill-rule="evenodd">
        <g id="Desktop-HD" transform="translate(-813.000000, -1577.000000)">
            <g id="logo_fe" transform="translate(813.000000, 1577.000000)">
                <circle id="Oval" fill="#FDBD2C" cx="136.5" cy="136.5" r="136.5"></circle>
                <path d="M87.6230469,192.232422 C89.7714844,192.232422 91.5292969,191.426758 92.8964844,189.81543 C94.2636719,188.204102 95.3134766,186.299805 96.0458984,184.102539 C96.7783203,181.905273 97.2666016,179.634766 97.5107422,177.291016 C97.7548828,174.947266 97.9257812,172.994141 98.0234375,171.431641 C98.21875,168.306641 98.3652344,165.157227 98.4628906,161.983398 C98.5605469,158.80957 98.609375,155.611328 98.609375,152.388672 C101.050781,151.607422 104.029297,150.533203 107.544922,149.166016 C111.060547,147.798828 114.429688,146.138672 117.652344,144.185547 C120.875,142.232422 123.633789,139.986328 125.928711,137.447266 C128.223633,134.908203 129.371094,132.027344 129.371094,128.804688 C129.371094,125.875 128.467773,123.824219 126.661133,122.652344 C124.854492,121.480469 122.535156,120.894531 119.703125,120.894531 C116.1875,120.894531 112.476562,121.578125 108.570312,122.945312 C104.664062,124.3125 101.148438,125.777344 98.0234375,127.339844 C98.21875,125.191406 98.3652344,123.042969 98.4628906,120.894531 C98.5605469,118.746094 98.609375,116.646484 98.609375,114.595703 C101.539062,113.423828 105.005859,111.958984 109.009766,110.201172 C113.013672,108.443359 116.84668,106.368164 120.508789,103.975586 C124.170898,101.583008 127.271484,98.8730469 129.810547,95.8457031 C132.349609,92.8183594 133.619141,89.4492188 133.619141,85.7382812 C133.619141,84.2734375 133.326172,83.1015625 132.740234,82.2226562 C132.154297,81.34375 131.373047,80.6601562 130.396484,80.171875 C129.419922,79.6835938 128.370117,79.3662109 127.24707,79.2197266 C126.124023,79.0732422 124.976562,79 123.804688,79 C121.265625,79 117.62793,79.5126953 112.891602,80.5380859 C108.155273,81.5634766 103.296875,82.8818359 98.3164062,84.4931641 C93.3359375,86.1044922 88.8193359,87.9599609 84.7666016,90.0595703 C80.7138672,92.1591797 78.1503906,94.2832031 77.0761719,96.4316406 C76.5878906,97.5058594 76.1728516,99.1904297 75.8310547,101.485352 C75.4892578,103.780273 75.2207031,106.416992 75.0253906,109.395508 C74.8300781,112.374023 74.6591797,115.523438 74.5126953,118.84375 C74.3662109,122.164062 74.2685547,125.337891 74.2197266,128.365234 C74.1708984,131.392578 74.1220703,134.151367 74.0732422,136.641602 C74.0244141,139.131836 74,141.011719 74,142.28125 L74,142.564724 C74.002788,144.209509 74.0271267,146.507595 74.0732422,149.458984 C74.1220703,152.583984 74.3173828,156.001953 74.6591797,159.712891 C75.0009766,163.423828 75.4892578,167.208008 76.1240234,171.06543 C76.7587891,174.922852 77.5888672,178.414062 78.6142578,181.539062 C79.6396484,184.664062 80.8847656,187.227539 82.3496094,189.229492 C83.8144531,191.231445 85.5722656,192.232422 87.6230469,192.232422 Z M156.03125,193.404297 C157.984375,193.404297 161.011719,192.696289 165.113281,191.280273 C169.214844,189.864258 173.462891,188.155273 177.857422,186.15332 C182.251953,184.151367 186.255859,182.027344 189.869141,179.78125 C193.482422,177.535156 195.777344,175.582031 196.753906,173.921875 C197.730469,172.164062 198.21875,170.357422 198.21875,168.501953 C198.21875,167.134766 197.950195,165.767578 197.413086,164.400391 C196.875977,163.033203 196.167969,161.836914 195.289062,160.811523 C194.410156,159.786133 193.335938,158.956055 192.066406,158.321289 C190.796875,157.686523 189.429688,157.369141 187.964844,157.369141 C186.695312,157.369141 184.742188,157.686523 182.105469,158.321289 C179.46875,158.956055 176.734375,159.712891 173.902344,160.591797 C171.070312,161.470703 168.360352,162.349609 165.772461,163.228516 C163.18457,164.107422 161.304688,164.742188 160.132812,165.132812 L160.132812,165.132812 L159.546875,161.03125 C159.351562,159.664062 159.253906,158.296875 159.253906,156.929688 C159.253906,156.050781 159.351562,155.147461 159.546875,154.219727 C159.742188,153.291992 159.9375,152.4375 160.132812,151.65625 C163.550781,150.484375 166.96875,149.288086 170.386719,148.067383 C173.804688,146.84668 177.076172,145.40625 180.201172,143.746094 C181.470703,143.0625 182.764648,142.354492 184.083008,141.62207 C185.401367,140.889648 186.573242,140.035156 187.598633,139.058594 C188.624023,138.082031 189.454102,136.958984 190.088867,135.689453 C190.723633,134.419922 191.041016,132.955078 191.041016,131.294922 C191.041016,124.458984 187.574219,121.041016 180.640625,121.041016 C177.222656,121.041016 173.609375,121.724609 169.800781,123.091797 C165.992188,124.458984 162.574219,125.923828 159.546875,127.486328 C159.742188,125.142578 160.05957,122.823242 160.499023,120.52832 C160.938477,118.233398 161.353516,115.962891 161.744141,113.716797 C163.111328,113.130859 165.479492,112.154297 168.848633,110.787109 C172.217773,109.419922 175.733398,107.881836 179.395508,106.172852 C183.057617,104.463867 186.451172,102.730469 189.576172,100.972656 C192.701172,99.2148438 194.751953,97.7011719 195.728516,96.4316406 C196.412109,95.3574219 196.924805,94.3808594 197.266602,93.5019531 C197.608398,92.6230469 197.779297,91.5488281 197.779297,90.2792969 C197.779297,88.8144531 197.510742,87.4228516 196.973633,86.1044922 C196.436523,84.7861328 195.704102,83.5898438 194.776367,82.515625 C193.848633,81.4414062 192.725586,80.5869141 191.407227,79.9521484 C190.088867,79.3173828 188.697266,79 187.232422,79 C185.962891,79 184.107422,79.1708984 181.666016,79.5126953 C179.224609,79.8544922 176.514648,80.2939453 173.536133,80.8310547 C170.557617,81.3681641 167.457031,82.0273438 164.234375,82.8085938 C161.011719,83.5898438 158.008789,84.4199219 155.225586,85.2988281 C152.442383,86.1777344 150.025391,87.1054688 147.974609,88.0820312 C145.923828,89.0585938 144.556641,89.9863281 143.873047,90.8652344 C141.626953,93.8925781 139.844727,97.5791016 138.526367,101.924805 C137.208008,106.270508 136.207031,110.811523 135.523438,115.547852 C134.839844,120.28418 134.375977,124.996094 134.131836,129.683594 C133.887695,134.371094 133.765625,138.521484 133.765625,142.134766 C133.765625,143.111328 133.790039,144.673828 133.838867,146.822266 C133.887695,148.970703 133.985352,151.436523 134.131836,154.219727 C134.27832,157.00293 134.449219,159.932617 134.644531,163.008789 C134.839844,166.084961 135.05957,168.990234 135.303711,171.724609 C135.547852,174.458984 135.84082,176.851562 136.182617,178.902344 C136.524414,180.953125 136.890625,182.320312 137.28125,183.003906 C137.964844,184.175781 139.063477,185.396484 140.577148,186.666016 C142.09082,187.935547 143.775391,189.058594 145.630859,190.035156 C147.486328,191.011719 149.341797,191.817383 151.197266,192.452148 C153.052734,193.086914 154.664062,193.404297 156.03125,193.404297 Z" id="FE" fill="#FFFFFF" fill-rule="nonzero"></path>
            </g>
        </g>
    </g>
</svg>